<?xml version="1.0" encoding="utf-8"?>

<!DOCTYPE svg PUBLIC "-//W3C//DTD SVG 1.1//EN" "http://www.w3.org/Graphics/SVG/1.1/DTD/svg11.dtd">
<!-- Uploaded to: SVG Repo, www.svgrepo.com, Generator: SVG Repo Mixer Tools -->
<svg height="800px" width="800px" version="1.1" id="_x32_" xmlns="http://www.w3.org/2000/svg" xmlns:xlink="http://www.w3.org/1999/xlink" 
	 viewBox="0 0 512 512"  xml:space="preserve">
<style type="text/css">
	.st0{fill:#000000;}
</style>
<g>
	<path class="st0" d="M257.211,96.925c26.765,0,48.459-21.702,48.459-48.459C305.67,21.694,283.976,0,257.211,0
		c-26.772,0-48.466,21.694-48.466,48.466C208.745,75.224,230.439,96.925,257.211,96.925z"/>
	<path class="st0" d="M362.467,398.217l-22.408-118.394l-9.968-104.94c-6.46-69.589-73.894-64.601-106.811-32.361l-54.701,56.091
		l-51.284,16.609l-10.088-57.27c-1.105-6.257-7.076-10.442-13.334-9.345c-6.265,1.104-10.449,7.076-9.338,13.341l10.644,60.44
		l-1.344,0.436c-9.961,3.665-15.301,14.483-12.154,24.623l0.248,0.774c2.757,8.894,11.23,14.498,20.252,13.95l42.036,238.719
		c1.105,6.256,7.069,10.441,13.334,9.336c6.258-1.104,10.441-7.068,9.337-13.333l-42.171-239.515l45.747-10.366
		c10.682-2.464,20.83-6.866,29.912-12.988l29.8-20.034l10.524,79.993c0.766,5.867-6.138,30.536-7.708,36.26l-44.89,152.174
		c-3.411,12.274,3.764,25.007,16.038,28.47l0.848,0.24c11.606,3.268,23.782-2.892,28.004-14.182l60.515-148.412l16.046,67.434
		c2.238,4.462,5.198,8.504,8.758,11.989l71.475,75.885c8.458,8.263,21.837,8.631,30.724,0.841l1.074-0.924
		c4.544-3.988,7.317-9.63,7.678-15.67c0.36-6.046-1.706-11.981-5.755-16.473L362.467,398.217z"/>
	<path class="st0" d="M403.173,271.612c8.15-0.736,15.676-4.68,20.905-10.974c5.244-6.295,7.768-14.408,7.009-22.558l-6.716-72.692
		c-1.562-16.917-16.534-29.387-33.458-27.862l-37.341,3.373l12.387,134.071L403.173,271.612z"/>
</g>
</svg>